<?xml version="1.0" encoding="UTF-8"?><svg xmlns="http://www.w3.org/2000/svg" xmlns:xlink="http://www.w3.org/1999/xlink" version="1.1" id="Layer_1" x="0px" y="0px" viewBox="0 0 29 29" xml:space="preserve"><style type="text/css">.st0{fill:none;stroke:#000000;stroke-width:2;stroke-miterlimit:10;} .st1{fill:none;stroke:#000000;stroke-width:2;stroke-linecap:round;stroke-linejoin:round;stroke-miterlimit:10;} .st2{fill:none;stroke:#000000;stroke-miterlimit:10;} .st3{fill:none;stroke:#000000;stroke-width:2;stroke-miterlimit:10;stroke-dasharray:1.7411,1.7411;} .st4{fill:none;stroke:#000000;stroke-width:2;stroke-linecap:round;stroke-linejoin:round;stroke-dasharray:2.0261,4.0522;} .st5{fill:#606060;} .st6{stroke:#000000;stroke-miterlimit:10;}</style><path d="M14.5 27.065a12.465 12.465 0 0 1-8.839-3.655c-4.874-4.874-4.874-12.804 0-17.678 2.361-2.361 5.5-3.662 8.839-3.662s6.478 1.3 8.839 3.662c4.874 4.874 4.874 12.804 0 17.678a12.465 12.465 0 0 1-8.839 3.655zm0-22.995c-2.805 0-5.441 1.092-7.425 3.076S4 11.766 4 14.571s1.092 5.441 3.075 7.425c4.095 4.093 10.757 4.093 14.85 0C23.908 20.012 25 17.375 25 14.571s-1.092-5.441-3.075-7.425S17.305 4.07 14.5 4.07z"/><path d="M12.202 20.167a.999.999 0 0 1-.707-1.707l3.889-3.889-3.889-3.889a.999.999 0 1 1 1.414-1.414l4.596 4.596a.999.999 0 0 1 0 1.414l-4.596 4.596a.997.997 0 0 1-.707.293z"/><metadata><rdf:RDF xmlns:rdf="http://www.w3.org/1999/02/22-rdf-syntax-ns#" xmlns:rdfs="http://www.w3.org/2000/01/rdf-schema#" xmlns:dc="http://purl.org/dc/elements/1.1/"><rdf:Description about="https://iconscout.com/legal#licenses" dc:title="next,right,arrow,direction,sign" dc:description="next,right,arrow,direction,sign" dc:publisher="Iconscout" dc:date="2017-10-03" dc:format="image/svg+xml" dc:language="en"><dc:creator><rdf:Bag><rdf:li>Jemis Mali</rdf:li></rdf:Bag></dc:creator></rdf:Description></rdf:RDF></metadata></svg>